<?xml version="1.0" encoding="UTF-8" standalone="no"?>
<!-- Created with Inkscape (http://www.inkscape.org/) -->

<svg
   width="187.88905mm"
   height="177.6158mm"
   viewBox="0 0 187.88906 177.61579"
   version="1.1"
   id="svg1"
   xml:space="preserve"
   xmlns:xlink="http://www.w3.org/1999/xlink"
   xmlns="http://www.w3.org/2000/svg"
   xmlns:svg="http://www.w3.org/2000/svg"><defs
     id="defs1"><linearGradient
       id="linearGradient37"><stop
         style="stop-color:#0f2730;stop-opacity:0.71764708;"
         offset="0"
         id="stop37" /><stop
         style="stop-color:#080a4b;stop-opacity:0;"
         offset="1"
         id="stop38" /></linearGradient><linearGradient
       xlink:href="#linearGradient37"
       id="linearGradient38"
       x1="66.013542"
       y1="73.686455"
       x2="16.933334"
       y2="44.450001"
       gradientUnits="userSpaceOnUse"
       gradientTransform="translate(-29.733774,-55.99612)" /></defs><g
     id="g2"
     transform="translate(-9.9570802,-68.696128)"><path
       style="-inkscape-font-specification:Century;opacity:0.664336;fill:#f9f1dc;stroke-width:6.67087;stroke-linecap:round"
       d="m 29.147781,829.54686 h 32.161376 v 4.8828 h -2.27864 q -5.078112,0 -6.5104,0.78125 -1.367184,0.78125 -1.367184,2.47395 0,1.17187 0.97656,3.71093 l 0.390624,1.23698 19.596304,61.13265 17.187456,-56.44517 q -2.994784,-9.63539 -4.622384,-11.26299 -1.562496,-1.6276 -6.315088,-1.6276 h -5.85936 v -4.8828 h 40.169165 v 4.8828 h -4.16665 q -5.46874,0 -7.09634,0.91146 -1.627599,0.84635 -1.627599,2.60416 0,1.36718 0.390619,2.53905 l 19.98693,63.28109 16.40621,-54.75246 q 0.97656,-3.1901 0.97656,-6.11978 0,-4.36197 -2.01822,-6.38019 -1.95312,-2.08333 -5.92447,-2.08333 h -2.99478 v -4.8828 h 30.20826 v 4.8828 q -3.97135,0.52083 -6.31509,1.95312 -2.34375,1.36719 -4.10155,3.97135 -1.69271,2.60416 -3.45052,8.65883 l -23.69785,79.10136 h -4.55728 L 92.428869,857.47648 71.335173,928.11432 h -4.8828 L 39.369109,842.63277 q -1.6276,-5.01301 -3.710928,-6.57551 -2.018224,-1.6276 -6.5104,-1.6276 z m 154.296479,33.46346 q 12.30466,0 20.63797,8.91925 8.39842,8.85414 8.39842,23.37233 0,10.02602 -3.77603,17.12235 -3.71093,7.03124 -10.67706,11.13279 -6.90102,4.10155 -14.90882,4.10155 -11.84892,0 -20.11713,-8.98435 -8.20311,-8.98435 -8.20311,-23.30723 0,-14.38799 8.26821,-23.37234 8.26821,-8.98435 20.37755,-8.98435 z m 0,4.62238 q -7.29164,0 -11.97913,6.64061 -4.68749,6.5755 -4.68749,20.83328 0,14.51819 4.62238,21.2239 4.68749,6.70572 12.04424,6.70572 7.61717,0 12.30466,-6.70572 4.75259,-6.70571 4.75259,-21.94004 0,-14.12757 -4.68749,-20.44266 -4.62238,-6.31509 -12.36976,-6.31509 z m 36.91397,-2.79947 21.94005,-1.10677 v 24.67442 q 3.51562,-12.17445 8.46352,-18.42443 4.9479,-6.24999 12.23955,-6.24999 4.94791,0 7.87759,3.05989 2.99478,2.99478 2.99478,8.0729 0,4.10155 -2.01822,6.38019 -1.95312,2.27864 -4.94791,2.27864 -2.92968,0 -4.75259,-1.95312 -1.75781,-1.95312 -1.75781,-5.27343 0,-2.14843 1.04167,-4.03644 0.97656,-1.69271 0.97656,-2.01823 0,-0.97656 -1.23698,-0.97656 -2.66926,0 -6.05467,3.12499 -4.68749,4.36197 -7.22655,11.97914 -3.90624,11.84893 -3.90624,18.94526 v 13.08591 q 0,2.21353 1.5625,3.38541 1.5625,1.17187 5.33853,1.17187 h 7.74737 v 4.8828 h -37.89052 v -4.8828 h 6.05467 q 3.05989,0 4.62238,-1.17187 1.5625,-1.23698 1.5625,-2.92968 v -38.86709 q 0,-4.42707 -1.88802,-6.4453 -1.88801,-2.08333 -5.40363,-2.08333 h -5.33853 z m 59.11443,-35.28637 23.30724,-1.10677 v 66.6014 l 19.85672,-17.25256 q 2.86457,-2.53906 2.86457,-4.42708 0,-1.6276 -1.6927,-2.53905 -2.53906,-1.30208 -8.26821,-1.43229 v -4.55728 h 32.4869 v 4.55728 q -9.6354,0.52083 -14.71351,5.07811 l -13.99736,12.43487 22.7213,31.24992 q 2.08333,2.79947 7.22654,2.79947 h 3.38541 v 4.8828 h -33.33325 v -4.8828 h 3.32031 q 3.71092,0 4.9479,-0.65104 1.30208,-0.65104 1.30208,-1.5625 0,-0.91145 -0.65104,-1.82291 l -16.53642,-23.17702 -8.91924,7.74737 v 15.42965 q 0,1.88802 1.23697,2.79947 1.75781,1.23698 4.8828,1.23698 h 4.23176 v 4.8828 h -32.74731 v -4.8828 h 5.27342 q 3.2552,0 4.8177,-1.36719 1.5625,-1.36718 1.5625,-3.64582 v -75.26022 q 0,-2.92968 -1.88802,-4.29687 -2.73437,-1.95312 -7.35675,-1.95312 h -3.32031 z"
       id="text6"
       transform="matrix(0.26458333,0,0,0.26458333,2.245064,0.74835467)"
       aria-label="Work" /><path
       style="-inkscape-font-specification:Century;opacity:0.664336;fill:#f34715;stroke-width:6.67087;stroke-linecap:round"
       d="m 412.24087,839.10207 h 44.40093 v 4.8828 h -7.61717 q -5.07811,0 -6.44529,1.30208 -1.30208,1.23697 -1.30208,5.33853 v 72.91648 q 0,4.36196 1.17187,5.46873 1.56249,1.49739 5.66405,1.49739 h 8.52862 v 4.8828 h -44.40093 v -4.8828 h 8.39842 q 4.42707,0 5.72915,-1.30208 1.30208,-1.30208 1.30208,-5.66404 v -72.91648 q 0,-4.16666 -1.17187,-5.14322 -1.82291,-1.49739 -6.70571,-1.49739 h -7.55207 z m 53.7108,35.28637 20.24735,-1.23698 q 1.23697,5.72915 1.82291,13.41142 4.10155,-6.6406 9.63539,-9.96091 5.59895,-3.3203 12.63018,-3.3203 6.05467,0 10.15622,2.40885 4.10155,2.34374 6.57551,7.48696 2.47395,5.14321 2.47395,11.5234 v 29.68743 q 0,3.3203 1.49739,4.75259 1.49739,1.36718 5.01301,1.36718 h 4.29686 v 4.8828 h -32.16137 v -4.8828 h 3.05988 q 4.29687,0 5.98957,-1.36718 1.69271,-1.36718 1.69271,-4.10155 v -26.10671 q 0,-8.52862 -2.60416,-12.63017 -3.64583,-5.85936 -11.06768,-5.85936 -7.35676,0 -12.30466,5.92446 -4.8828,5.92447 -4.8828,15.42965 v 22.59109 q 0,3.3203 1.49739,4.75259 1.5625,1.36718 5.07811,1.36718 h 4.23176 v 4.8828 h -32.29158 v -4.8828 h 4.23176 q 3.1901,0 4.8177,-1.30208 1.6927,-1.30208 1.6927,-3.2552 v -39.38792 q 0,-3.90624 -2.14843,-5.92446 -2.08333,-2.01822 -6.05467,-2.01822 h -3.125 z"
       id="text7"
       transform="matrix(0.26458333,0,0,0.26458333,-11.231879,-1.4967093)"
       aria-label="In" /><path
       style="-inkscape-font-specification:Century;opacity:0.664336;fill:#82adbd;stroke-width:6.67087;stroke-linecap:round"
       d="m 464.72591,831.32472 h 32.16137 v 4.8828 h -2.27864 q -5.07811,0 -6.5104,0.78125 -1.36718,0.78125 -1.36718,2.47395 0,1.17188 0.97656,3.71093 l 0.39062,1.23698 19.59631,61.13265 17.18745,-56.44516 q -2.99478,-9.6354 -4.62238,-11.263 -1.5625,-1.6276 -6.31509,-1.6276 h -5.85936 v -4.8828 h 40.16917 v 4.8828 h -4.16666 q -5.46873,0 -7.09633,0.91146 -1.6276,0.84635 -1.6276,2.60416 0,1.36718 0.39062,2.53906 l 19.98693,63.28108 16.40621,-54.75246 q 0.97656,-3.1901 0.97656,-6.11978 0,-4.36196 -2.01823,-6.38019 -1.95312,-2.08333 -5.92446,-2.08333 h -2.99479 v -4.8828 h 30.20826 v 4.8828 q -3.97134,0.52084 -6.31509,1.95312 -2.34374,1.36719 -4.10155,3.97135 -1.6927,2.60416 -3.45051,8.65883 l -23.69786,79.10136 h -4.55728 l -22.26557,-70.63784 -21.09369,70.63784 h -4.8828 l -27.08327,-85.48155 q -1.6276,-5.01301 -3.71092,-6.57551 -2.01823,-1.6276 -6.5104,-1.6276 z m 182.74693,66.21077 h -43.68479 q 0.32552,13.93226 5.20832,19.66141 5.59895,6.4453 14.25778,6.4453 12.76038,0 20.50776,-14.5182 l 4.23176,1.82292 q -9.50518,18.48953 -27.47389,18.48953 -12.23955,0 -20.63797,-8.85414 -8.33331,-8.85415 -8.33331,-22.65619 0,-14.84372 8.2031,-23.95828 8.26821,-9.17966 20.31245,-9.17966 8.85415,0 15.29944,4.55728 6.4453,4.55728 9.7005,13.0859 2.27864,5.98957 2.40885,15.10413 z m -43.68479,-4.62238 h 26.43223 q 2.34374,0 3.64582,-1.5625 1.30208,-1.6276 1.30208,-5.46873 0,-7.16144 -4.49217,-12.17445 -4.42708,-5.01301 -10.48175,-5.01301 -6.77082,0 -11.52341,6.05467 -4.68749,6.05467 -4.8828,18.16402 z m 72.00503,-62.69515 v 45.31238 q 3.84113,-5.40363 8.52862,-8.0729 4.68749,-2.66926 10.22133,-2.66926 10.74216,0 18.16402,8.39842 7.42185,8.39841 7.42185,22.13536 0,14.90881 -8.00779,24.08848 -7.94269,9.11456 -19.72651,9.11456 -5.59895,0 -10.15623,-2.21354 -4.55728,-2.21354 -9.37497,-7.48696 -3.71093,5.92446 -7.16144,9.7005 l -2.60416,-0.91146 q 1.82291,-7.48696 1.82291,-15.62496 v -68.94514 q 0,-3.19009 -2.27864,-5.013 -2.21354,-1.82292 -6.31509,-1.82292 h -2.73437 v -4.8828 z m 16.40621,40.29937 q -7.35676,0 -11.97914,6.4453 -4.62238,6.38019 -4.62238,21.1588 0,14.06246 4.55728,20.11713 4.55728,6.05468 11.91403,6.05468 6.64061,0 10.67705,-5.98957 5.07812,-7.55207 5.07812,-21.54943 0,-13.80204 -4.49218,-19.98692 -4.42707,-6.24999 -11.13278,-6.24999 z"
       id="text8"
       transform="matrix(0.26458333,0,0,0.26458333,7.3120349,-0.04184395)"
       aria-label="Web" /></g><g
     id="g1"
     transform="translate(19.605399)"><path
       style="fill:none;stroke:#030101;stroke-width:1.765;stroke-linecap:round;stroke-dasharray:none;stroke-opacity:1"
       d="m 74.960544,113.68248 c 0,0 7.68085,-12.91842 19.57114,-19.78059 3.87589,-2.23687 8.535996,-1.75474 8.535996,-1.75474"
       id="path3" /><path
       style="fill:url(#linearGradient38);fill-opacity:1;stroke:none;stroke-width:1.765;stroke-linecap:round;stroke-dasharray:none;stroke-opacity:1"
       d="m 1e-6,19.608567 v -8.929688 c 0,0 0.264583,-10.583333 11.773958,-10.649479 11.509375,-0.06615 18.520833,0 18.520833,0 0,0 8.797396,0.198438 8.863541,9.855729 0.06615,9.657292 -8.797395,9.921875 -8.797395,9.921875 z"
       id="path19" /><path
       style="fill:#5a7b99;fill-opacity:1;stroke:none;stroke-width:3.31199;stroke-linecap:round;stroke-dasharray:none;stroke-opacity:1"
       d="M 118.74254,80.25078 C 112.25494,75.5676 104.59644,66.808 88.478344,45.63542 82.318704,37.544165 75.287854,28.483347 72.854224,25.500261 c -2.43364,-2.983087 -4.424792,-5.55589 -4.424792,-5.717337 0,-0.04568 1.503482,-0.153783 6.779212,-0.185794 2.75066,-0.01669 6.55309,-0.0074 11.64624,0.0309 l 18.425466,0.138647 3.00912,1.236799 c 5.59571,2.299918 9.15336,6.081619 11.61022,12.341405 1.62274,4.134554 2.14726,12.551179 1.97455,31.684329 l -0.15678,17.36907 z"
       id="path14" /><path
       style="fill:#82adbd;fill-opacity:1;stroke:none;stroke-width:2.62291;stroke-linecap:round;stroke-dasharray:none;stroke-opacity:1"
       d="m 103.59634,105.22576 c -0.91036,-0.41763 -3.55335,-2.35135 -4.521216,-3.35775 -2.07412,-2.15673 -5.51698,-7.75278 -4.89361,-8.38275 0.20005,-0.20217 1.45727,-1.01968 4.22682,-1.52057 2.586986,-0.46789 6.515566,-0.62388 11.529216,-0.72302 l 5.52451,-0.10924 0.0186,5.08637 c 0.0375,10.23203 -3.39278,9.46194 -5.43827,9.67707 -1.47616,0.15525 -4.30772,0.31087 -6.4461,-0.67011 z"
       id="path15" /><path
       style="fill:#f56117;fill-opacity:1;stroke:none;stroke-width:2.9503;stroke-linecap:round;stroke-dasharray:none;stroke-opacity:1"
       d="m 30.972333,80.16795 c 0.391429,-13.05644 1.051394,-46.753079 1.051216,-53.673339 l -1.75e-4,-6.897509 h 21.59404 21.59403 L 54.136989,51.597 C 42.546034,69.19696 32.545191,84.3945 31.912894,85.36934 l -1.149636,1.77243 z"
       id="path13" /><path
       style="fill:#82adbd;fill-opacity:1;stroke:none;stroke-width:2.64587;stroke-linecap:round;stroke-dasharray:none;stroke-opacity:1"
       d="m 120.36244,75.80409 c -1.12767,-0.15904 -2.88859,-0.61908 -3.91316,-1.02229 l -1.86285,-0.73311 -0.60356,-20.12525 c -0.52802,-17.606737 -0.69626,-20.409457 -1.34447,-22.396352 -1.56826,-4.807094 -4.24898,-7.435247 -7.12107,-10.285504 l -1.64255,-1.495654 7.33059,-0.0035 c 4.959,-0.0024 6.48882,0.101433 9.47908,0.87331 12.97264,3.348626 21.48478,11.013476 25.0779,22.581657 0.94228,3.033683 1.17436,4.682373 1.48705,10.563623 l 0.34712,7.8342 -0.85932,2.01249 c -1.43194,3.35352 -6.62224,8.06686 -9.69147,9.67264 -4.54479,2.37776 -10.90107,3.33932 -16.68329,2.52379 z"
       id="path18" /><path
       style="fill:#f34715;fill-opacity:1;stroke:none;stroke-width:2.55654;stroke-linecap:round;stroke-dasharray:none;stroke-opacity:1"
       d="m 35.210234,106.13452 c -1.984753,-1.92697 -3.430016,-2.84846 -3.985251,-13.74005 L 30.816587,84.38331 52.911027,51.22994 C 63.92627,34.701237 74.981184,19.536682 75.212304,19.59715 c 0.2266,0.05929 10.72549,17.48818 23.24317,35.63659 6.848346,9.92888 12.818376,15.53749 14.648696,16.83904 l 2.64427,1.88036 -0.4934,9.07156 0.17127,8.43275 c -7.51784,2.08845 -10.87338,2.14868 -17.136836,1.56807 -6.79812,-0.63017 -16.15211,-9.47019 -23.63962,-21.42919 -1.61056,-2.57238 -2.07545,0.63004 -2.94488,1.93475 0,0 -4.278409,7.4738 -6.321507,9.80725 -2.604839,3.41568 -15.432269,21.98092 -20.120654,24.2117 -2.1195,1.00848 -5.189041,0.8681 -7.24624,0.0812 -1.613312,-0.61712 -0.288295,0.94803 -2.806339,-1.49671 z"
       id="path12" /><path
       style="fill:#f9f1dc;fill-opacity:1;stroke:none;stroke-width:2.64748;stroke-linecap:round;stroke-dasharray:none;stroke-opacity:1"
       d="M 102.23488,137.56886 C 91.567144,135.2265 82.756884,128.78364 76.198764,118.52891 l -2.2925,-3.58472 0.6826,-1.21521 c 1.75067,-3.11661 6.04116,-8.63045 9.58703,-12.32059 3.42461,-3.56397 9.24361,-8.32552 10.16916,-8.32117 0.17851,8.6e-4 0.65838,0.86863 1.06639,1.92843 2.71765,7.05916 8.067496,11.34429 13.705596,10.97793 2.90391,-0.18869 4.3834,-0.63945 5.42292,-2.92841 0.47343,-1.04246 0.88571,-3.04276 0.88619,-7.73107 l 5.4e-4,-5.29329 2.42424,-0.73789 c 3.75306,-1.14238 9.84192,-4.45269 13.51007,-7.34499 5.71498,-4.5062 11.72833,-11.75363 15.16892,-18.28201 l 1.06586,-2.0828 0.0237,20.4466 c 0.008,22.53915 -0.0669,23.44982 -2.47373,30.17453 -2.12315,5.9321 -4.28605,9.4647 -8.57619,14.00727 -5.3349,5.64882 -9.67294,8.23051 -18.04026,10.73633 -3.72531,1.11563 -12.49805,1.44459 -16.29443,0.61101 z"
       id="path16" /><path
       style="fill:#f34715;fill-opacity:1;stroke:none;stroke-width:2.49609;stroke-linecap:round;stroke-dasharray:none;stroke-opacity:1"
       d="m 115.74298,73.95029 c 0,0 4.86954,2.34184 10.88942,1.84167 5.69152,-0.47289 9.25772,-1.81174 12.94367,-4.51767 5.47433,-4.01883 8.071,-9.87485 8.01987,-9.67946 -3.43958,13.14275 -16.66757,22.34064 -19.39143,24.19384 -4.12126,2.80393 -7.65446,4.21096 -12.78073,5.66902 -0.0159,0.005 -0.77082,-9.6801 -0.39734,-5.66235 0.25369,2.72901 -0.49393,-6.94491 0.71654,-11.84505 z"
       id="path17" /><path
       style="fill:#f9891d;fill-opacity:1;stroke:none;stroke-width:2.55618;stroke-linecap:round;stroke-dasharray:none;stroke-opacity:1"
       d="M 30.150416,137.51382 C 20.849215,135.76239 14.26545,132.46858 8.965564,126.9152 5.757605,123.55381 3.792489,120.43687 2.279233,116.30978 -0.034644,109.99918 3e-5,110.8082 3e-5,63.12813 V 19.597102 H 15.998077 32.476229 L 32.224471,36.80017 c -0.829343,56.67052 -1.224323,52.23657 -0.771814,57.02604 0.989724,10.47546 3.142118,14.04372 8.2185,13.62471 5.726855,-0.47271 12.511195,-7.89611 31.574307,-34.54852 l 3.02507,-4.22941 2.67145,4.03827 c 6.82902,10.32304 13.11001,17.02168 17.32028,18.69433 l 4.0735,1.61832 -3.5429,1.20221 c -7.19598,2.44181 -16.80096,13.56937 -21.07903,21.70816 -4.173139,7.93915 -12.297159,15.46016 -20.266762,18.76244 -7.170328,2.9711 -16.492406,4.09835 -23.296656,2.8171 z"
       id="path11" /><path
       style="-inkscape-font-specification:Century;fill:#f9f1dc;stroke-width:1.88125;stroke-linecap:round"
       d="M 2.3292231,6.7721408 3.9397715,6.6950162 V 9.970554 Q 4.2754914,9.5350256 4.6611157,9.3217972 5.0467398,9.104033 5.4777317,9.104033 q 0.4083079,0 0.7349544,0.1950806 0.2540583,0.1542505 0.4309918,0.5398747 0.1814702,0.3856247 0.1814702,0.9118877 v 2.018856 q 0,0.195081 0.099809,0.285816 0.099808,0.0862 0.3130361,0.0862 h 0.3629405 v 0.340255 H 5.3053349 v -0.340255 h 0.2540583 q 0.2903524,0 0.3992346,-0.09074 0.1134189,-0.09527 0.1134189,-0.281279 v -2.018856 q 0,-0.5308 -0.2585951,-0.8256892 Q 5.5593932,9.6257599 5.1601587,9.6257599 4.8471226,9.6257599 4.579454,9.79362 4.3117855,9.96148 4.1257784,10.306274 3.9397715,10.64653 3.9397715,11.027617 v 1.696748 q 0,0.226838 0.095272,0.322109 0.095272,0.09527 0.3130361,0.09527 h 0.3629405 v 0.340255 H 2.4653258 v -0.340255 h 0.2540583 q 0.2585951,0 0.3674773,-0.09981 0.1088821,-0.104345 0.1088821,-0.317572 V 7.6522714 q 0,-0.2722052 -0.1451762,-0.4037708 Q 2.9099279,7.112398 2.6377225,7.112398 H 2.3292231 Z m 7.5301137,0.7258814 h 0.3084992 v 1.7330407 h 1.374638 v 0.4173818 h -1.374638 v 2.7265893 q 0,0.353868 0.16786,0.544411 0.16786,0.186007 0.426455,0.186007 0.3085,0 0.526264,-0.285816 0.217764,-0.285815 0.254059,-0.943644 h 0.303962 q -0.02722,0.848373 -0.385624,1.261218 -0.358404,0.408307 -0.930035,0.408307 -0.526264,0 -0.8256897,-0.285816 Q 9.4101981,12.96935 9.4101981,12.502064 V 9.6484447 H 8.6707069 V 9.3308711 Q 9.1742868,9.2446726 9.4374186,8.9089524 9.8275796,8.4053734 9.8593368,7.4980222 Z m 4.2455022,0 h 0.308499 v 1.7330407 h 1.374637 v 0.4173818 h -1.374637 v 2.7265893 q 0,0.353868 0.167861,0.544411 0.16786,0.186007 0.426455,0.186007 0.308499,0 0.526263,-0.285816 0.217764,-0.285815 0.254058,-0.943644 h 0.303963 q -0.02722,0.848373 -0.385624,1.261218 -0.358404,0.408307 -0.930035,0.408307 -0.526264,0 -0.825689,-0.285816 -0.294889,-0.290351 -0.294889,-0.757637 V 9.6484447 H 12.91621 V 9.3308711 q 0.503579,-0.086199 0.766711,-0.4219187 0.390162,-0.503579 0.421918,-1.4109302 z m 4.472341,1.6559161 q 0.09981,0.4763585 0.117955,0.9164237 0.313036,-0.4990432 0.657829,-0.7077334 0.344794,-0.2086903 0.753102,-0.2086903 0.435528,0 0.830227,0.2676683 0.399233,0.2676682 0.644218,0.7848584 0.249522,0.517191 0.249522,1.165946 0,1.038917 -0.607926,1.69221 -0.503579,0.544411 -1.206777,0.544411 -0.399233,0 -0.721343,-0.204154 -0.32211,-0.204155 -0.571632,-0.607926 v 1.719432 q 0,0.199616 0.09527,0.281277 0.122491,0.108883 0.340255,0.108883 h 0.313037 v 0.32211 h -2.263841 v -0.32211 h 0.313036 q 0.217764,0 0.326646,-0.0862 0.108883,-0.0862 0.108883,-0.226838 v -4.473242 q 0,-0.3130352 -0.149713,-0.4400651 -0.14971,-0.1315636 -0.598849,-0.1451733 V 9.2310629 Z m 1.320196,0.4128448 q -0.494507,0 -0.839301,0.4763589 -0.340257,0.476359 -0.340257,1.379174 0,0.911888 0.331183,1.347416 0.331184,0.435528 0.843838,0.435528 0.480895,0 0.739491,-0.372013 0.331183,-0.489969 0.331183,-1.433615 0,-0.989013 -0.299426,-1.4109314 -0.299425,-0.4219175 -0.766711,-0.4219175 z m 3.809973,2.3137439 q 0.281279,0.78486 0.64422,1.088823 0.367478,0.299425 0.902814,0.299425 0.494506,0 0.757639,-0.213227 0.267668,-0.217764 0.267668,-0.548947 0,-0.190544 -0.09981,-0.331184 -0.09527,-0.145176 -0.267668,-0.213228 -0.172397,-0.07259 -0.893741,-0.20869 -0.689587,-0.136103 -0.961792,-0.285816 -0.272206,-0.149713 -0.426456,-0.412845 -0.149712,-0.263131 -0.149712,-0.571631 0,-0.467286 0.313036,-0.8483732 0.40377,-0.4854324 1.129652,-0.4854324 0.553484,0 1.025307,0.3493298 l 0.299426,-0.3175724 h 0.186006 l 0.117956,1.5152762 h -0.303962 q -0.199618,-0.644219 -0.539874,-0.9254986 -0.340257,-0.2858149 -0.8393,-0.2858149 -0.430992,0 -0.675976,0.2132272 -0.244985,0.2086903 -0.244985,0.5126533 0,0.267668 0.226837,0.444602 0.222301,0.18147 0.871058,0.285816 0.753101,0.127029 0.979939,0.213227 0.372013,0.136103 0.576168,0.421919 0.204154,0.281278 0.204154,0.689586 0,0.562558 -0.444602,0.952719 -0.440066,0.390161 -1.120579,0.390161 -0.63061,0 -1.170483,-0.417381 l -0.331183,0.381087 h -0.240448 l -0.09074,-1.692211 z M 33.634233,6.7721408 31.638061,13.482002 H 31.05282 l 2.000709,-6.7098612 z m 3.211124,0 -1.996172,6.7098612 h -0.585242 l 2.00071,-6.7098612 z"
       id="text40"
       aria-label="https //" /><path
       d="m 28.971102,9.164719 q 0.229275,0 0.38662,0.157345 0.157345,0.157345 0.157345,0.38662 0,0.23377 -0.157345,0.391115 -0.15285,0.152849 -0.382124,0.152849 -0.229274,0 -0.391115,-0.157345 -0.157345,-0.161841 -0.157345,-0.386619 0,-0.220284 0.157345,-0.382124 0.161841,-0.161841 0.386619,-0.161841 z m 0.009,3.358195 q 0.224778,0 0.382124,0.161841 0.16184,0.157345 0.16184,0.386619 0,0.23377 -0.16184,0.395611 -0.157346,0.161841 -0.382124,0.161841 -0.224779,0 -0.391115,-0.161841 -0.161841,-0.161841 -0.161841,-0.386619 0,-0.23377 0.161841,-0.395611 0.16184,-0.161841 0.391115,-0.161841 z"
       id="text1"
       style="-inkscape-font-specification:Century;fill:#f9f1dc;stroke-width:1.86417;stroke-linecap:round"
       aria-label=":" /></g></svg>
