<?xml version="1.0" encoding="UTF-8" standalone="no"?>
<!-- Created with Inkscape (http://www.inkscape.org/) -->

<svg
   width="147.61993mm"
   height="138.03616mm"
   viewBox="0 0 147.61994 138.03616"
   version="1.1"
   id="svg1"
   xml:space="preserve"
   xmlns:xlink="http://www.w3.org/1999/xlink"
   xmlns="http://www.w3.org/2000/svg"
   xmlns:svg="http://www.w3.org/2000/svg"><defs
     id="defs1"><linearGradient
       id="linearGradient37"><stop
         style="stop-color:#0f2730;stop-opacity:0.71764708;"
         offset="0"
         id="stop37" /><stop
         style="stop-color:#080a4b;stop-opacity:0;"
         offset="1"
         id="stop38" /></linearGradient><linearGradient
       xlink:href="#linearGradient37"
       id="linearGradient38"
       x1="66.013542"
       y1="73.686455"
       x2="16.933334"
       y2="44.450001"
       gradientUnits="userSpaceOnUse"
       gradientTransform="translate(0.35787175)" /></defs><g
     id="layer1"
     transform="translate(-30.091646,-55.99612)"><g
       id="g2"><path
         style="-inkscape-font-specification:Century;opacity:0.664336;fill:#f9f1dc;stroke-width:6.67087;stroke-linecap:round"
         d="m 29.147781,829.54686 h 32.161376 v 4.8828 h -2.27864 q -5.078112,0 -6.5104,0.78125 -1.367184,0.78125 -1.367184,2.47395 0,1.17187 0.97656,3.71093 l 0.390624,1.23698 19.596304,61.13265 17.187456,-56.44517 q -2.994784,-9.63539 -4.622384,-11.26299 -1.562496,-1.6276 -6.315088,-1.6276 h -5.85936 v -4.8828 h 40.169165 v 4.8828 h -4.16665 q -5.46874,0 -7.09634,0.91146 -1.627599,0.84635 -1.627599,2.60416 0,1.36718 0.390619,2.53905 l 19.98693,63.28109 16.40621,-54.75246 q 0.97656,-3.1901 0.97656,-6.11978 0,-4.36197 -2.01822,-6.38019 -1.95312,-2.08333 -5.92447,-2.08333 h -2.99478 v -4.8828 h 30.20826 v 4.8828 q -3.97135,0.52083 -6.31509,1.95312 -2.34375,1.36719 -4.10155,3.97135 -1.69271,2.60416 -3.45052,8.65883 l -23.69785,79.10136 h -4.55728 L 92.428869,857.47648 71.335173,928.11432 h -4.8828 L 39.369109,842.63277 q -1.6276,-5.01301 -3.710928,-6.57551 -2.018224,-1.6276 -6.5104,-1.6276 z m 154.296479,33.46346 q 12.30466,0 20.63797,8.91925 8.39842,8.85414 8.39842,23.37233 0,10.02602 -3.77603,17.12235 -3.71093,7.03124 -10.67706,11.13279 -6.90102,4.10155 -14.90882,4.10155 -11.84892,0 -20.11713,-8.98435 -8.20311,-8.98435 -8.20311,-23.30723 0,-14.38799 8.26821,-23.37234 8.26821,-8.98435 20.37755,-8.98435 z m 0,4.62238 q -7.29164,0 -11.97913,6.64061 -4.68749,6.5755 -4.68749,20.83328 0,14.51819 4.62238,21.2239 4.68749,6.70572 12.04424,6.70572 7.61717,0 12.30466,-6.70572 4.75259,-6.70571 4.75259,-21.94004 0,-14.12757 -4.68749,-20.44266 -4.62238,-6.31509 -12.36976,-6.31509 z m 36.91397,-2.79947 21.94005,-1.10677 v 24.67442 q 3.51562,-12.17445 8.46352,-18.42443 4.9479,-6.24999 12.23955,-6.24999 4.94791,0 7.87759,3.05989 2.99478,2.99478 2.99478,8.0729 0,4.10155 -2.01822,6.38019 -1.95312,2.27864 -4.94791,2.27864 -2.92968,0 -4.75259,-1.95312 -1.75781,-1.95312 -1.75781,-5.27343 0,-2.14843 1.04167,-4.03644 0.97656,-1.69271 0.97656,-2.01823 0,-0.97656 -1.23698,-0.97656 -2.66926,0 -6.05467,3.12499 -4.68749,4.36197 -7.22655,11.97914 -3.90624,11.84893 -3.90624,18.94526 v 13.08591 q 0,2.21353 1.5625,3.38541 1.5625,1.17187 5.33853,1.17187 h 7.74737 v 4.8828 h -37.89052 v -4.8828 h 6.05467 q 3.05989,0 4.62238,-1.17187 1.5625,-1.23698 1.5625,-2.92968 v -38.86709 q 0,-4.42707 -1.88802,-6.4453 -1.88801,-2.08333 -5.40363,-2.08333 h -5.33853 z m 59.11443,-35.28637 23.30724,-1.10677 v 66.6014 l 19.85672,-17.25256 q 2.86457,-2.53906 2.86457,-4.42708 0,-1.6276 -1.6927,-2.53905 -2.53906,-1.30208 -8.26821,-1.43229 v -4.55728 h 32.4869 v 4.55728 q -9.6354,0.52083 -14.71351,5.07811 l -13.99736,12.43487 22.7213,31.24992 q 2.08333,2.79947 7.22654,2.79947 h 3.38541 v 4.8828 h -33.33325 v -4.8828 h 3.32031 q 3.71092,0 4.9479,-0.65104 1.30208,-0.65104 1.30208,-1.5625 0,-0.91145 -0.65104,-1.82291 l -16.53642,-23.17702 -8.91924,7.74737 v 15.42965 q 0,1.88802 1.23697,2.79947 1.75781,1.23698 4.8828,1.23698 h 4.23176 v 4.8828 h -32.74731 v -4.8828 h 5.27342 q 3.2552,0 4.8177,-1.36719 1.5625,-1.36718 1.5625,-3.64582 v -75.26022 q 0,-2.92968 -1.88802,-4.29687 -2.73437,-1.95312 -7.35675,-1.95312 h -3.32031 z"
         id="text6"
         transform="matrix(0.26458333,0,0,0.26458333,2.245064,0.74835467)"
         aria-label="Work" /><path
         style="-inkscape-font-specification:Century;opacity:0.664336;fill:#f34715;stroke-width:6.67087;stroke-linecap:round"
         d="m 412.24087,839.10207 h 44.40093 v 4.8828 h -7.61717 q -5.07811,0 -6.44529,1.30208 -1.30208,1.23697 -1.30208,5.33853 v 72.91648 q 0,4.36196 1.17187,5.46873 1.56249,1.49739 5.66405,1.49739 h 8.52862 v 4.8828 h -44.40093 v -4.8828 h 8.39842 q 4.42707,0 5.72915,-1.30208 1.30208,-1.30208 1.30208,-5.66404 v -72.91648 q 0,-4.16666 -1.17187,-5.14322 -1.82291,-1.49739 -6.70571,-1.49739 h -7.55207 z m 53.7108,35.28637 20.24735,-1.23698 q 1.23697,5.72915 1.82291,13.41142 4.10155,-6.6406 9.63539,-9.96091 5.59895,-3.3203 12.63018,-3.3203 6.05467,0 10.15622,2.40885 4.10155,2.34374 6.57551,7.48696 2.47395,5.14321 2.47395,11.5234 v 29.68743 q 0,3.3203 1.49739,4.75259 1.49739,1.36718 5.01301,1.36718 h 4.29686 v 4.8828 h -32.16137 v -4.8828 h 3.05988 q 4.29687,0 5.98957,-1.36718 1.69271,-1.36718 1.69271,-4.10155 v -26.10671 q 0,-8.52862 -2.60416,-12.63017 -3.64583,-5.85936 -11.06768,-5.85936 -7.35676,0 -12.30466,5.92446 -4.8828,5.92447 -4.8828,15.42965 v 22.59109 q 0,3.3203 1.49739,4.75259 1.5625,1.36718 5.07811,1.36718 h 4.23176 v 4.8828 h -32.29158 v -4.8828 h 4.23176 q 3.1901,0 4.8177,-1.30208 1.6927,-1.30208 1.6927,-3.2552 v -39.38792 q 0,-3.90624 -2.14843,-5.92446 -2.08333,-2.01822 -6.05467,-2.01822 h -3.125 z"
         id="text7"
         transform="matrix(0.26458333,0,0,0.26458333,-11.231879,-1.4967093)"
         aria-label="In" /><path
         style="-inkscape-font-specification:Century;opacity:0.664336;fill:#82adbd;stroke-width:6.67087;stroke-linecap:round"
         d="m 464.72591,831.32472 h 32.16137 v 4.8828 h -2.27864 q -5.07811,0 -6.5104,0.78125 -1.36718,0.78125 -1.36718,2.47395 0,1.17188 0.97656,3.71093 l 0.39062,1.23698 19.59631,61.13265 17.18745,-56.44516 q -2.99478,-9.6354 -4.62238,-11.263 -1.5625,-1.6276 -6.31509,-1.6276 h -5.85936 v -4.8828 h 40.16917 v 4.8828 h -4.16666 q -5.46873,0 -7.09633,0.91146 -1.6276,0.84635 -1.6276,2.60416 0,1.36718 0.39062,2.53906 l 19.98693,63.28108 16.40621,-54.75246 q 0.97656,-3.1901 0.97656,-6.11978 0,-4.36196 -2.01823,-6.38019 -1.95312,-2.08333 -5.92446,-2.08333 h -2.99479 v -4.8828 h 30.20826 v 4.8828 q -3.97134,0.52084 -6.31509,1.95312 -2.34374,1.36719 -4.10155,3.97135 -1.6927,2.60416 -3.45051,8.65883 l -23.69786,79.10136 h -4.55728 l -22.26557,-70.63784 -21.09369,70.63784 h -4.8828 l -27.08327,-85.48155 q -1.6276,-5.01301 -3.71092,-6.57551 -2.01823,-1.6276 -6.5104,-1.6276 z m 182.74693,66.21077 h -43.68479 q 0.32552,13.93226 5.20832,19.66141 5.59895,6.4453 14.25778,6.4453 12.76038,0 20.50776,-14.5182 l 4.23176,1.82292 q -9.50518,18.48953 -27.47389,18.48953 -12.23955,0 -20.63797,-8.85414 -8.33331,-8.85415 -8.33331,-22.65619 0,-14.84372 8.2031,-23.95828 8.26821,-9.17966 20.31245,-9.17966 8.85415,0 15.29944,4.55728 6.4453,4.55728 9.7005,13.0859 2.27864,5.98957 2.40885,15.10413 z m -43.68479,-4.62238 h 26.43223 q 2.34374,0 3.64582,-1.5625 1.30208,-1.6276 1.30208,-5.46873 0,-7.16144 -4.49217,-12.17445 -4.42708,-5.01301 -10.48175,-5.01301 -6.77082,0 -11.52341,6.05467 -4.68749,6.05467 -4.8828,18.16402 z m 72.00503,-62.69515 v 45.31238 q 3.84113,-5.40363 8.52862,-8.0729 4.68749,-2.66926 10.22133,-2.66926 10.74216,0 18.16402,8.39842 7.42185,8.39841 7.42185,22.13536 0,14.90881 -8.00779,24.08848 -7.94269,9.11456 -19.72651,9.11456 -5.59895,0 -10.15623,-2.21354 -4.55728,-2.21354 -9.37497,-7.48696 -3.71093,5.92446 -7.16144,9.7005 l -2.60416,-0.91146 q 1.82291,-7.48696 1.82291,-15.62496 v -68.94514 q 0,-3.19009 -2.27864,-5.013 -2.21354,-1.82292 -6.31509,-1.82292 h -2.73437 v -4.8828 z m 16.40621,40.29937 q -7.35676,0 -11.97914,6.4453 -4.62238,6.38019 -4.62238,21.1588 0,14.06246 4.55728,20.11713 4.55728,6.05468 11.91403,6.05468 6.64061,0 10.67705,-5.98957 5.07812,-7.55207 5.07812,-21.54943 0,-13.80204 -4.49218,-19.98692 -4.42707,-6.24999 -11.13278,-6.24999 z"
         id="text8"
         transform="matrix(0.26458333,0,0,0.26458333,7.3120349,-0.04184395)"
         aria-label="Web" /></g><path
       style="fill:none;stroke:#030101;stroke-width:1.765;stroke-linecap:round;stroke-dasharray:none;stroke-opacity:1"
       d="m 105.05219,169.6786 c 0,0 7.68085,-12.91842 19.57114,-19.78059 3.87589,-2.23687 8.536,-1.75474 8.536,-1.75474"
       id="path3" /><path
       style="fill:url(#linearGradient38);fill-opacity:1;stroke:none;stroke-width:1.765;stroke-linecap:round;stroke-dasharray:none;stroke-opacity:1"
       d="m 30.091647,75.604687 v -8.929688 c 0,0 0.264583,-10.583333 11.773958,-10.649479 11.509375,-0.06615 18.520833,0 18.520833,0 0,0 8.797396,0.198438 8.863541,9.855729 0.06615,9.657292 -8.797395,9.921875 -8.797395,9.921875 z"
       id="path19" /><path
       style="fill:#5a7b99;fill-opacity:1;stroke:none;stroke-width:3.31199;stroke-linecap:round;stroke-dasharray:none;stroke-opacity:1"
       d="m 148.83419,136.2469 c -6.4876,-4.68318 -14.1461,-13.44278 -30.2642,-34.61536 -6.15964,-8.091255 -13.19049,-17.152073 -15.62412,-20.135159 -2.43364,-2.983087 -4.424792,-5.55589 -4.424792,-5.717337 0,-0.04568 1.503482,-0.153783 6.779212,-0.185794 2.75066,-0.01669 6.55309,-0.0074 11.64624,0.0309 l 18.42547,0.138647 3.00912,1.236799 c 5.59571,2.299918 9.15336,6.081619 11.61022,12.341405 1.62274,4.134554 2.14726,12.551179 1.97455,31.684329 l -0.15678,17.36907 z"
       id="path14" /><path
       style="fill:#82adbd;fill-opacity:1;stroke:none;stroke-width:2.62291;stroke-linecap:round;stroke-dasharray:none;stroke-opacity:1"
       d="m 133.68799,161.22188 c -0.91036,-0.41763 -3.55335,-2.35135 -4.52122,-3.35775 -2.07412,-2.15673 -5.51698,-7.75278 -4.89361,-8.38275 0.20005,-0.20217 1.45727,-1.01968 4.22682,-1.52057 2.58699,-0.46789 6.51557,-0.62388 11.52922,-0.72302 l 5.52451,-0.10924 0.0186,5.08637 c 0.0375,10.23203 -3.39278,9.46194 -5.43827,9.67707 -1.47616,0.15525 -4.30772,0.31087 -6.4461,-0.67011 z"
       id="path15" /><path
       style="fill:#f56117;fill-opacity:1;stroke:none;stroke-width:2.9503;stroke-linecap:round;stroke-dasharray:none;stroke-opacity:1"
       d="m 61.063979,136.16407 c 0.391429,-13.05644 1.051394,-46.753079 1.051216,-53.673339 l -1.75e-4,-6.897509 h 21.59404 21.59403 L 84.228635,107.59312 C 72.63768,125.19308 62.636837,140.39062 62.00454,141.36546 l -1.149636,1.77243 z"
       id="path13" /><path
       style="fill:#82adbd;fill-opacity:1;stroke:none;stroke-width:2.64587;stroke-linecap:round;stroke-dasharray:none;stroke-opacity:1"
       d="m 150.45409,131.80021 c -1.12767,-0.15904 -2.88859,-0.61908 -3.91316,-1.02229 l -1.86285,-0.73311 -0.60356,-20.12525 c -0.52802,-17.606737 -0.69626,-20.409457 -1.34447,-22.396352 -1.56826,-4.807094 -4.24898,-7.435247 -7.12107,-10.285504 l -1.64255,-1.495654 7.33059,-0.0035 c 4.959,-0.0024 6.48882,0.101433 9.47908,0.87331 12.97264,3.348626 21.48478,11.013476 25.0779,22.581657 0.94228,3.033683 1.17436,4.682373 1.48705,10.563623 l 0.34712,7.8342 -0.85932,2.01249 c -1.43194,3.35352 -6.62224,8.06686 -9.69147,9.67264 -4.54479,2.37776 -10.90107,3.33932 -16.68329,2.52379 z"
       id="path18" /><path
       style="fill:#f34715;fill-opacity:1;stroke:none;stroke-width:2.55654;stroke-linecap:round;stroke-dasharray:none;stroke-opacity:1"
       d="m 65.30188,162.13064 c -1.984753,-1.92697 -3.430016,-2.84846 -3.985251,-13.74005 l -0.408396,-8.01116 22.09444,-33.15337 C 94.017916,90.697357 105.07283,75.532802 105.30395,75.59327 c 0.2266,0.05929 10.72549,17.48818 23.24317,35.63659 6.84835,9.92888 12.81838,15.53749 14.6487,16.83904 l 2.64427,1.88036 -0.4934,9.07156 0.17127,8.43275 c -7.51784,2.08845 -10.87338,2.14868 -17.13684,1.56807 -6.79812,-0.63017 -16.15211,-9.47019 -23.63962,-21.42919 -1.61056,-2.57238 -2.07545,0.63004 -2.94488,1.93475 0,0 -4.278409,7.4738 -6.321507,9.80725 -2.604839,3.41568 -15.432269,21.98092 -20.120654,24.2117 -2.1195,1.00848 -5.189041,0.8681 -7.24624,0.0812 -1.613312,-0.61712 -0.288295,0.94803 -2.806339,-1.49671 z"
       id="path12" /><path
       style="fill:#f9f1dc;fill-opacity:1;stroke:none;stroke-width:2.64748;stroke-linecap:round;stroke-dasharray:none;stroke-opacity:1"
       d="m 132.32653,193.56498 c -10.66774,-2.34236 -19.478,-8.78522 -26.03612,-19.03995 l -2.2925,-3.58472 0.6826,-1.21521 c 1.75067,-3.11661 6.04116,-8.63045 9.58703,-12.32059 3.42461,-3.56397 9.24361,-8.32552 10.16916,-8.32117 0.17851,8.6e-4 0.65838,0.86863 1.06639,1.92843 2.71765,7.05916 8.0675,11.34429 13.7056,10.97793 2.90391,-0.18869 4.3834,-0.63945 5.42292,-2.92841 0.47343,-1.04246 0.88571,-3.04276 0.88619,-7.73107 l 5.4e-4,-5.29329 2.42424,-0.73789 c 3.75306,-1.14238 9.84192,-4.45269 13.51007,-7.34499 5.71498,-4.5062 11.72833,-11.75363 15.16892,-18.28201 l 1.06586,-2.0828 0.0237,20.4466 c 0.008,22.53915 -0.0669,23.44982 -2.47373,30.17453 -2.12315,5.9321 -4.28605,9.4647 -8.57619,14.00727 -5.3349,5.64882 -9.67294,8.23051 -18.04026,10.73633 -3.72531,1.11563 -12.49805,1.44459 -16.29443,0.61101 z"
       id="path16" /><path
       style="fill:#f34715;fill-opacity:1;stroke:none;stroke-width:2.49609;stroke-linecap:round;stroke-dasharray:none;stroke-opacity:1"
       d="m 145.83463,129.94641 c 0,0 4.86954,2.34184 10.88942,1.84167 5.69152,-0.47289 9.25772,-1.81174 12.94367,-4.51767 5.47433,-4.01883 8.071,-9.87485 8.01987,-9.67946 -3.43958,13.14275 -16.66757,22.34064 -19.39143,24.19384 -4.12126,2.80393 -7.65446,4.21096 -12.78073,5.66902 -0.0159,0.005 -0.77082,-9.6801 -0.39734,-5.66235 0.25369,2.72901 -0.49393,-6.94491 0.71654,-11.84505 z"
       id="path17" /><path
       style="fill:#f9891d;fill-opacity:1;stroke:none;stroke-width:2.55618;stroke-linecap:round;stroke-dasharray:none;stroke-opacity:1"
       d="m 60.242062,193.50994 c -9.301201,-1.75143 -15.884966,-5.04524 -21.184852,-10.59862 -3.207959,-3.36139 -5.173075,-6.47833 -6.686331,-10.60542 -2.313877,-6.3106 -2.279203,-5.50158 -2.279203,-53.18165 V 75.593222 H 46.089723 62.567875 L 62.316117,92.79629 c -0.829343,56.67052 -1.224323,52.23657 -0.771814,57.02604 0.989724,10.47546 3.142118,14.04372 8.2185,13.62471 5.726855,-0.47271 12.511195,-7.89611 31.574307,-34.54852 l 3.02507,-4.22941 2.67145,4.03827 c 6.82902,10.32304 13.11001,17.02168 17.32028,18.69433 l 4.0735,1.61832 -3.5429,1.20221 c -7.19598,2.44181 -16.80096,13.56937 -21.07903,21.70816 -4.173139,7.93915 -12.297159,15.46016 -20.266762,18.76244 -7.170328,2.9711 -16.492406,4.09835 -23.296656,2.8171 z"
       id="path11" /><path
       style="-inkscape-font-specification:Century;fill:#f9f1dc;stroke-width:15.1181;stroke-linecap:round"
       d="m 29.852865,128.3647 12.942715,-0.61979 v 26.32293 q 2.697918,-3.5 5.796878,-5.21355 3.098959,-1.75 6.562503,-1.75 3.281251,0 5.906253,1.56771 2.041667,1.23959 3.463543,4.33855 1.458334,3.09896 1.458334,7.32813 v 16.22396 q 0,1.56771 0.802084,2.29688 0.802083,0.69271 2.515626,0.69271 h 2.916668 v 2.73437 H 53.769543 v -2.73437 h 2.041668 q 2.333334,0 3.208335,-0.72917 0.911459,-0.76563 0.911459,-2.26042 v -16.22396 q 0,-4.26563 -2.078126,-6.63542 -2.041668,-2.40626 -5.250003,-2.40626 -2.515626,0 -4.666669,1.34896 -2.151042,1.34896 -3.645835,4.1198 -1.494792,2.73437 -1.494792,5.79687 v 13.63543 q 0,1.82292 0.765625,2.58854 0.765626,0.76563 2.515626,0.76563 h 2.916668 v 2.73437 H 30.946616 v -2.73437 h 2.041667 q 2.078126,0 2.953127,-0.80209 0.875,-0.83854 0.875,-2.55208 v -40.76044 q 0,-2.1875 -1.166667,-3.24479 -1.130209,-1.09375 -3.31771,-1.09375 h -2.479168 z m 60.513623,5.83334 h 2.479168 v 13.92709 h 11.046884 v 3.35417 H 92.845656 v 21.91146 q 0,2.84376 1.348959,4.37501 1.348959,1.49479 3.427085,1.49479 2.47917,0 4.22917,-2.29688 1.75,-2.29687 2.04167,-7.58333 h 2.44271 q -0.21875,6.81771 -3.09896,10.13542 -2.88021,3.28125 -7.473966,3.28125 -4.229168,0 -6.635419,-2.29688 -2.369793,-2.33333 -2.369793,-6.08854 v -22.9323 h -5.942711 v -2.55209 q 4.046877,-0.69271 6.161461,-3.39063 3.135418,-4.04687 3.390626,-11.33854 z m 34.117772,0 h 2.47917 v 13.92709 h 11.04688 v 3.35417 h -11.04688 v 21.91146 q 0,2.84376 1.34896,4.37501 1.34896,1.49479 3.42709,1.49479 2.47916,0 4.22916,-2.29688 1.75,-2.29687 2.04167,-7.58333 h 2.44271 q -0.21875,6.81771 -3.09896,10.13542 -2.88021,3.28125 -7.47396,3.28125 -4.22917,0 -6.63542,-2.29688 -2.36979,-2.33333 -2.36979,-6.08854 v -22.9323 h -5.94271 v -2.55209 q 4.04687,-0.69271 6.16146,-3.39063 3.13542,-4.04687 3.39062,-11.33854 z m 35.9407,13.3073 q 0.80208,3.82812 0.94791,7.36458 2.51563,-4.01042 5.28646,-5.6875 2.77084,-1.67708 6.05209,-1.67708 3.5,0 6.67188,2.15104 3.20833,2.15104 5.17708,6.30729 2.00521,4.15626 2.00521,9.3698 0,8.34896 -4.88542,13.59896 -4.04687,4.37501 -9.69792,4.37501 -3.20833,0 -5.79687,-1.64063 -2.58855,-1.64063 -4.59376,-4.88542 v 13.81772 q 0,1.60416 0.76563,2.26041 0.98437,0.875 2.73437,0.875 h 2.51563 v 2.58855 h -18.19272 v -2.58855 h 2.51563 q 1.75,0 2.625,-0.6927 0.875,-0.69271 0.875,-1.82292 v -35.94794 q 0,-2.51562 -1.20312,-3.53646 -1.20313,-1.05729 -4.81251,-1.16666 v -2.44271 z m 10.60938,3.31771 q -3.97396,0 -6.7448,3.82812 -2.73438,3.82813 -2.73438,11.08334 0,7.32813 2.66146,10.82813 2.66146,3.5 6.78126,3.5 3.86458,0 5.94271,-2.98958 2.66146,-3.9375 2.66146,-11.52084 0,-7.94792 -2.40625,-11.33855 -2.40625,-3.39062 -6.16146,-3.39062 z m 30.61777,18.59375 q 2.26042,6.3073 5.17709,8.75001 2.95313,2.40625 7.25521,2.40625 3.97396,0 6.08855,-1.71354 2.15104,-1.75 2.15104,-4.41146 0,-1.53125 -0.80209,-2.66146 -0.76562,-1.16667 -2.15104,-1.71355 -1.38542,-0.58333 -7.18229,-1.67708 -5.54167,-1.09375 -7.72917,-2.29688 -2.18751,-1.20312 -3.42709,-3.31771 -1.20312,-2.11458 -1.20312,-4.59375 0,-3.75521 2.51562,-6.81771 3.24479,-3.90104 9.07813,-3.90104 4.44792,0 8.23959,2.80729 l 2.40625,-2.55208 h 1.49479 l 0.94792,12.17709 h -2.44271 q -1.60417,-5.17709 -4.33854,-7.43751 -2.73438,-2.29687 -6.7448,-2.29687 -3.46354,0 -5.43229,1.71354 -1.96875,1.67708 -1.96875,4.11979 0,2.15104 1.82291,3.57292 1.78646,1.45833 7.00001,2.29688 6.05208,1.02083 7.875,1.71354 2.98958,1.09375 4.63021,3.39063 1.64063,2.26041 1.64063,5.54166 0,4.52084 -3.57292,7.65626 -3.53646,3.13542 -9.00521,3.13542 -5.06772,0 -9.40626,-3.35417 l -2.66146,3.0625 h -1.93229 l -0.72917,-13.59897 z m 79.77459,-41.0521 -16.04167,53.9219 h -4.70313 l 16.07813,-53.9219 z m 25.80528,0 -16.04167,53.9219 h -4.70313 l 16.07814,-53.9219 z"
       id="text40"
       transform="matrix(0.12443667,0,0,0.12443667,28.706078,46.794985)"
       aria-label="https //" /><path
       d="m 59.062748,65.160839 q 0.229275,0 0.38662,0.157345 0.157345,0.157345 0.157345,0.38662 0,0.23377 -0.157345,0.391115 -0.15285,0.152849 -0.382124,0.152849 -0.229274,0 -0.391115,-0.157345 -0.157345,-0.161841 -0.157345,-0.386619 0,-0.220284 0.157345,-0.382124 0.161841,-0.161841 0.386619,-0.161841 z m 0.009,3.358195 q 0.224778,0 0.382124,0.161841 0.16184,0.157345 0.16184,0.386619 0,0.23377 -0.16184,0.395611 -0.157346,0.161841 -0.382124,0.161841 -0.224779,0 -0.391115,-0.161841 -0.161841,-0.161841 -0.161841,-0.386619 0,-0.23377 0.161841,-0.395611 0.16184,-0.161841 0.391115,-0.161841 z"
       id="text1"
       style="-inkscape-font-specification:Century;fill:#f9f1dc;stroke-width:1.86417;stroke-linecap:round"
       aria-label=":" /></g></svg>
